<?xml version="1.0" encoding="UTF-8"?>
<svg xmlns="http://www.w3.org/2000/svg" version="1.1" viewBox="0 0 24 24">
  <defs>
    <style>
      .cls-1 {
        fill: none;
        stroke: #fff;
        stroke-linecap: round;
        stroke-linejoin: round;
        stroke-width: 2px;
      }
    </style>
  </defs>
  <!-- Generator: Adobe Illustrator 28.6.0, SVG Export Plug-In . SVG Version: 1.2.0 Build 709)  -->
  <g>
    <g id="Layer_1">
      <path class="cls-1" d="M5,5.5c0-1.9,1.6-3.5,3.5-3.5h3.5v7h-3.5c-1.9,0-3.5-1.6-3.5-3.5Z"/>
      <path class="cls-1" d="M12,2h3.5c1.9,0,3.5,1.6,3.5,3.5s-1.6,3.5-3.5,3.5h-3.5V2Z"/>
      <path class="cls-1" d="M12,12.5c0-1.9,1.6-3.5,3.5-3.5s3.5,1.6,3.5,3.5-1.6,3.5-3.5,3.5-3.5-1.6-3.5-3.5Z"/>
      <path class="cls-1" d="M5,19.5c0-1.9,1.6-3.5,3.5-3.5h3.5v3.5c0,1.9-1.6,3.5-3.5,3.5s-3.5-1.6-3.5-3.5Z"/>
      <path class="cls-1" d="M5,12.5c0-1.9,1.6-3.5,3.5-3.5h3.5v7h-3.5c-1.9,0-3.5-1.6-3.5-3.5Z"/>
    </g>
  </g>
</svg>